<svg width="16" height="16" viewBox="0 0 16 16" fill="none" xmlns="http://www.w3.org/2000/svg">
<path d="M4 13.5C4 14.3284 4.67157 15 5.49999 15C6.32842 15 7 14.3284 7 13.5C7 12.6716 6.32842 12 5.49999 12C4.67157 12 4 12.6716 4 13.5Z" fill="#474E5A"/>
<path d="M9 13.5C9 14.3284 9.67157 15 10.5 15C11.3284 15 12 14.3284 12 13.5C12 12.6716 11.3284 12 10.5 12C9.67157 12 9 12.6716 9 13.5Z" fill="#474E5A"/>
<path d="M4 2.50001C4 3.32843 4.67157 4 5.49999 4C6.32842 4 7 3.32843 7 2.50001C7 1.67158 6.32842 1 5.49999 1C4.67157 1 4 1.67158 4 2.50001Z" fill="#474E5A"/>
<path d="M9 2.50001C9 3.32843 9.67157 4 10.5 4C11.3284 4 12 3.32843 12 2.50001C12 1.67158 11.3284 1 10.5 1C9.67157 1 9 1.67158 9 2.50001Z" fill="#474E5A"/>
<path d="M4 8.00001C4 8.82843 4.67157 9.5 5.49999 9.5C6.32842 9.5 7 8.82843 7 8.00001C7 7.17158 6.32842 6.5 5.49999 6.5C4.67157 6.5 4 7.17158 4 8.00001Z" fill="#474E5A"/>
<path d="M9 8.00001C9 8.82843 9.67157 9.5 10.5 9.5C11.3284 9.5 12 8.82843 12 8.00001C12 7.17158 11.3284 6.5 10.5 6.5C9.67157 6.5 9 7.17158 9 8.00001Z" fill="#474E5A"/>
</svg>
